<?xml version="1.0" encoding="utf-8"?>
<!-- Generator: Adobe Illustrator 16.0.0, SVG Export Plug-In . SVG Version: 6.00 Build 0)  -->
<!DOCTYPE svg PUBLIC "-//W3C//DTD SVG 1.1//EN" "http://www.w3.org/Graphics/SVG/1.1/DTD/svg11.dtd">
<svg version="1.1" xmlns="http://www.w3.org/2000/svg" xmlns:xlink="http://www.w3.org/1999/xlink" x="0px" y="0px"
	width="1600px" height="1100px" viewBox="0 0 1600 1100" enable-background="new 0 0 1600 1100" xml:space="preserve">
	<g id="background">
		<g>
			<linearGradient id="SVGID_1_" gradientUnits="userSpaceOnUse" x1="800" y1="1575.8721" x2="799.9999"
				y2="785.7006">
				<stop offset="0" style="stop-color:#E6E6E6" />
				<stop offset="1" style="stop-color:#FFFFFF" />
			</linearGradient>
			<rect x="-82" y="-86" fill="url(#SVGID_1_)" width="1764" height="1272" />
			<linearGradient id="SVGID_2_" gradientUnits="userSpaceOnUse" x1="531.165" y1="1085" x2="531.165"
				y2="-51.0629">
				<stop offset="0" style="stop-color:#E6E6E6" />
				<stop offset="1" style="stop-color:#FFFFFF" />
			</linearGradient>
			<path fill="url(#SVGID_2_)" d="M602.165-90l176,1266h-318l-176-1266H602.165" />
			<linearGradient id="SVGID_3_" gradientUnits="userSpaceOnUse" x1="835.165" y1="1474.0273" x2="835.165"
				y2="284.2393">
				<stop offset="0" style="stop-color:#E6E6E6" />
				<stop offset="1" style="stop-color:#FFFFFF" />
			</linearGradient>
			<path fill="url(#SVGID_3_)" d="M906.165-90l176,1266h-318l-176-1266H906.165" />
			<linearGradient id="SVGID_4_" gradientUnits="userSpaceOnUse" x1="1151.165" y1="1564.0332" x2="1151.165"
				y2="777.5889">
				<stop offset="0" style="stop-color:#E6E6E6" />
				<stop offset="1" style="stop-color:#FFFFFF" />
			</linearGradient>
			<path fill="url(#SVGID_4_)" d="M1222.165-90l176,1266h-318l-176-1266H1222.165" />
			<linearGradient id="SVGID_5_" gradientUnits="userSpaceOnUse" x1="118.6904" y1="22.9375" x2="490.728"
				y2="1067.043">
				<stop offset="0" style="stop-color:#F2D672" />
				<stop offset="0.4974" style="stop-color:#D89141" />
				<stop offset="1" style="stop-color:#F2D672" />
			</linearGradient>
			<polygon fill="url(#SVGID_5_)" points="292,-90 140,-90 316,1176 468,1176 		" />
			<polyline fill="#184771" points="-89,-90 273,-90 449,1176 -117,1176 -89,-90 		" />
			<polyline fill="#113D63" points="119,-90 -33,-90 143,1176 295,1176 119,-90 		" />
			<path fill="#0F395B" d="M-17.533-19.787c-1.622,2.815-3.116,5.506-4.575,8.134l1.479,10.635
			c2.948-5.123,5.629-10.153,8.727-15.524L-17.533-19.787z M1.944-20.112L1.944-20.112c-6.71,11.913-13.48,23.801-20.268,35.684
			l1.464,10.532C-8.672,11.783-0.492-2.546,7.605-16.923L1.944-20.112z M22.412-19.879C10.174,1.653-2.038,23.255-14.253,44.854
			l1.473,10.594c13.61-24.063,27.211-48.138,40.84-72.116L22.412-19.879z M41.094-19.722C24.001,10.685,6.799,41.025-10.582,71.262
			l1.458,10.492c18.815-32.66,37.414-65.439,55.881-98.292L41.094-19.722z M67.383-16.964l-5.65-3.209
			C39.01,19.825,16.185,59.765-6.625,99.72l1.465,10.539c1.253-2.195,2.506-4.391,3.76-6.586
			C21.548,63.477,44.516,23.287,67.383-16.964z M5.883,125.497l0.022-0.044c1.901-3.806,4.089-7.219,6.246-10.768
			c2.124-3.5,4.218-7.141,5.827-11.377c0.843-1.654,1.947-3.219,3.165-4.92c1.247-1.75,2.614-3.645,3.762-5.936l0.076-0.152
			l0.06-0.16c1.428-3.805,3.082-7.116,5.003-10.359c1.92-3.242,4.115-6.416,6.599-9.893l0.09-0.127l0.077-0.134
			C47.826,52.604,56.837,35.585,66.813,16.63C73.857,5.549,79.87-5.479,85.959-16.499l-5.688-3.143
			C74.151-8.561,68.184,2.375,61.259,13.256l-0.072,0.112l-0.062,0.119C51.15,32.44,42.194,49.355,31.266,68.238
			c-2.481,3.477-4.756,6.765-6.811,10.23c-2.051,3.46-3.876,7.098-5.435,11.225c-0.843,1.653-1.947,3.218-3.164,4.918
			c-1.247,1.75-2.614,3.644-3.762,5.936l-0.076,0.152l-0.06,0.16c-1.383,3.691-3.262,7.001-5.36,10.454
			c-2.085,3.438-4.386,7.01-6.479,11.183c-0.949,1.758-1.896,3.505-2.848,5.254l1.5,10.791c2.369-4.304,4.732-8.637,7.087-12.997
			L5.883,125.497z M106.044-16.701l-5.65-3.207v-0.001C77.542,20.348,54.69,60.604,31.838,100.86
			c-10.257,18.068-20.513,36.135-30.769,54.203l1.47,10.572c11.649-20.521,23.3-41.046,34.95-61.568
			C60.341,63.813,83.193,23.555,106.044-16.701z M120.146-20.202C82.022,47.686,43.6,115.383,4.984,183.227l1.468,10.557
			C46.472,123.484,86.307,53.325,125.811-17.021L120.146-20.202z M46.083,157.932c11.481-20.226,22.962-40.451,34.443-60.676
			c11.256-19.828,22.511-39.654,33.767-59.483c6.016-10.599,12.033-21.197,18.049-31.796l-1.47-10.572
			c-7.411,13.054-14.82,26.106-22.23,39.161C97.387,54.394,86.132,74.221,74.876,94.048c-11.481,20.226-22.963,40.451-34.443,60.677
			c-10.553,18.59-21.105,37.179-31.659,55.769l1.47,10.573c0.904-1.592,1.807-3.184,2.71-4.775L46.083,157.932z M65.669,157.932
			c11.481-20.226,22.962-40.451,34.443-60.676c11.255-19.828,22.511-39.654,33.766-59.483c0.772-1.36,1.544-2.72,2.317-4.081
			l-1.47-10.572c-2.166,3.815-4.332,7.631-6.498,11.446c-11.255,19.828-22.511,39.655-33.766,59.482
			c-11.481,20.226-22.962,40.451-34.443,60.677L26.89,213.084c-4.754,8.375-9.508,16.75-14.263,25.125l1.47,10.572
			c6.147-10.83,12.295-21.659,18.443-32.49C43.584,196.838,54.627,177.385,65.669,157.932z M121.71,92.8
			c1.554-2.087,2.824-4.126,4.045-6.078c1.25-2.001,2.448-3.912,3.844-5.772l0.153-0.204l0.119-0.225
			c3.373-6.372,6.783-12.642,10.216-18.839l-1.484-10.679c-4.824,8.596-9.622,17.318-14.356,26.256
			c-1.534,2.067-2.792,4.085-4.001,6.02c-1.25,2.001-2.448,3.912-3.844,5.772l-0.107,0.143l-0.091,0.153
			c-13.053,22.093-24.053,43.092-37,65.001l-0.007,0.012l-0.014,0.024c-21.717,37.866-42.186,74.787-62.706,111.508l1.482,10.663
			c21.932-39.199,43.688-78.537,66.841-118.907C97.822,135.607,108.802,114.653,121.71,92.8z M142.545,79.367
			c-40.411,71.336-81.381,142.65-122.207,214.309l1.467,10.552c40.793-71.644,81.763-142.944,122.211-214.278L142.545,79.367z
			 M61.477,268.826c9.94-17.512,19.881-35.023,29.822-52.535l33.129-58.359c7.775-13.697,15.552-27.396,23.328-41.095l-1.47-10.572
			c-9.169,16.152-18.339,32.307-27.508,48.46c-11.042,19.453-22.085,38.906-33.128,58.359c-9.94,17.512-19.881,35.023-29.822,52.535
			c-8.175,14.4-16.349,28.801-24.524,43.201c-2.372,4.178-4.744,8.356-7.116,12.534l1.47,10.573
			c3.766-6.634,7.531-13.267,11.297-19.9C45.127,297.627,53.302,283.227,61.477,268.826z M45.039,353.755l-1.454,0.825
			l181.726,320.131l-2.423-17.431L51.513,355.386c34.741-61.157,69.432-121.991,103.999-182.749l-1.468-10.56
			C117.809,225.779,81.42,289.58,44.984,353.724L45.039,353.755z M104.157,283.427l-0.018,0.033
			c-6.942,12.894-13.918,24.854-20.928,37.865c-4.071,6.129-7.1,12.189-10.062,18.11c-1.551,2.6-2.805,5.108-4.074,7.417
			c-1.286,2.346-2.581,4.48-4.178,6.396l0.25,0.208l-1.978,1.123l155.788,274.438l-2.423-17.43L71.252,355.656
			c1.361-1.87,2.481-3.786,3.52-5.678c1.365-2.49,2.594-4.945,4.013-7.307l0.065-0.108l0.055-0.11
			c3-6.003,5.936-11.861,9.797-17.651l0.085-0.128l0.073-0.134c6.96-12.928,13.955-24.921,20.985-37.972
			c16.827-29.615,33.212-57.891,49.458-86.655l-1.476-10.616c-17.598,31.305-35.352,61.889-53.653,94.098L104.157,283.427z
			 M145.109,245.504l-0.078,0.177c-1.922,4.325-4.112,8.226-6.363,12.227c-2.215,3.941-4.492,7.98-6.546,12.571
			c-7.978,12.97-14.982,24.98-21.982,37.981c-8.928,15.872-17.933,29.878-26.033,45.354l-1.35,0.767l129.85,228.745l-2.423-17.431
			L90.652,355.328c7.732-14.585,16.419-28.167,25.179-43.735l0.015-0.027l0.014-0.025c6.967-12.938,13.931-24.877,21.906-37.837
			l0.114-0.186l0.088-0.198c1.922-4.325,4.112-8.226,6.363-12.227c2.22-3.948,4.5-7.995,6.558-12.597
			c4.183-7.029,8.25-14.025,12.249-21.002l-1.466-10.544c-5.356,9.435-10.809,18.889-16.464,28.388L145.109,245.504z
			 M127.133,313.47c-8.006,14.015-14.972,26.942-23.312,40.121l0.125,0.079l-1.604,0.91l103.912,183.052l-2.423-17.43
			l-93.514-164.735c8.063-12.889,14.846-25.455,22.504-38.855l0.045-0.078l0.041-0.08c3-6.003,5.936-11.861,9.797-17.65l0.058-0.088
			l0.051-0.089c8.31-14.373,16.367-28.544,24.292-42.598l-1.476-10.619c-9.254,16.452-18.651,33.028-28.392,49.879
			C133.146,301.441,130.106,307.526,127.133,313.47z M131.584,339.179c-2.65,4.669-5.3,9.337-7.951,14.007
			c-0.102,0.179-0.204,0.358-0.306,0.538l0.055,0.031l-1.454,0.825l77.974,137.359l-2.423-17.431l-67.623-119.124
			c2.46-4.334,4.919-8.666,7.379-12.999c5.744-10.119,11.489-20.239,17.233-30.358c5.469-9.633,10.937-19.266,16.405-28.898
			l-1.47-10.572c-6.862,12.088-13.723,24.176-20.585,36.264C143.073,318.939,137.329,329.059,131.584,339.179z M142.97,353.754
			l-1.456,0.826l52.035,91.666l-2.423-17.43l-41.683-73.43c8.438-14.839,16.866-29.649,25.295-44.454l-1.467-10.556
			c-10.113,17.761-20.23,35.536-30.356,53.345L142.97,353.754z M162.805,353.186c-0.101,0.179-0.204,0.358-0.306,0.538l0.055,0.031
			l-1.454,0.825l26.097,45.973l-2.423-17.43l-15.746-27.738c2.46-4.334,4.919-8.666,7.379-12.999
			c0.724-1.275,1.448-2.551,2.172-3.826l-1.47-10.572c-2.118,3.73-4.235,7.461-6.353,11.191
			C168.105,343.848,165.455,348.516,162.805,353.186z M180.797,354.518l-0.111,0.063l0.159,0.28L180.797,354.518z M229.24,702.974
			L31.927,355.385c2.46-4.334,4.919-8.666,7.379-12.999c5.744-10.119,11.489-20.239,17.233-30.358
			c8.175-14.4,16.349-28.801,24.524-43.201c9.94-17.512,19.881-35.023,29.822-52.535c11.043-19.453,22.086-38.906,33.128-58.359
			c2.532-4.46,5.063-8.919,7.595-13.379l-1.47-10.572c-3.925,6.914-7.851,13.829-11.775,20.744
			c-11.043,19.453-22.086,38.906-33.128,58.359c-9.941,17.512-19.882,35.023-29.822,52.535c-8.174,14.4-16.349,28.801-24.523,43.201
			c-5.744,10.119-11.489,20.238-17.233,30.358c-1.872,3.297-3.743,6.595-5.615,9.892l0.415,2.98l1.911,13.743l201.298,354.61
			L229.24,702.974z M235.592,748.667L34.293,394.057l2.423,17.43l201.298,354.61L235.592,748.667z M241.944,794.359L40.646,439.749
			l2.423,17.432l201.298,354.61L241.944,794.359z M103.15,830.509l1.988-1.128c-0.604-1.065-1.209-2.13-1.813-3.194
			c-3.761-6.625-7.521-13.249-11.282-19.874c-0.193-0.34-0.386-0.68-0.578-1.019l2.423,17.431c1.262,2.224,2.524,4.446,3.787,6.67
			c0.211,0.371,0.422,0.743,0.632,1.114c-0.893,1.573-1.787,3.148-2.68,4.722l1.47,10.573c2.681-4.722,5.361-9.444,8.042-14.167
			L103.15,830.509z M122.73,830.507l1.985-1.141c-13.466-23.445-26.569-46.646-39.618-69.868l2.447,17.602
			c9.997,17.743,20.062,35.507,30.341,53.42c-6.146,10.817-12.277,21.643-18.4,32.473l1.474,10.6
			c7.904-13.993,15.823-27.981,23.763-41.953L122.73,830.507z M142.339,830.505l1.979-1.108
			c-18.485-32.988-36.485-64.986-55.482-98.981l-0.106-0.19l-0.13-0.174c-1.396-1.86-2.594-3.771-3.844-5.772
			c-1.221-1.952-2.491-3.99-4.044-6.079c-0.595-1.006-1.187-2.014-1.773-3.017l2.146,15.437c0.676,1.034,1.394,2.086,2.186,3.151
			c18.57,33.23,36.187,64.555,54.233,96.753c-11.239,20.322-22.649,40.369-34.14,60.349l1.458,10.489
			c13.295-23.063,26.515-46.219,39.508-69.758L142.339,830.505z M161.904,830.506l1.984-1.138
			c-30.718-53.566-60.946-106.43-91.268-159.618l2.412,17.346c27.235,47.749,54.436,95.307,82.026,143.424
			c-16.579,29.216-33.136,58.06-49.951,87.3l1.459,10.496c18.654-32.432,36.973-64.315,55.329-96.68L161.904,830.506z
			 M181.483,830.515l1.998-1.134L66.055,622.521l2.423,17.431l108.158,190.531c-22.222,38.228-44.012,76.3-65.746,114.547
			l1.47,10.568c23.512-41.412,47.05-82.577,71.104-123.932L181.483,830.515z M196.821,843.611c0.998-1.748,1.973-3.446,2.882-4.81
			l0.242-0.362l0.137-0.412c0.563-1.712,0.834-3.008,1.128-3.794c0.145-0.399,0.28-0.681,0.447-0.938
			c0.167-0.257,0.372-0.507,0.727-0.821l-1.585-1.807l2.268-1.287L59.703,576.828l2.423,17.432L196,830.092
			c-0.618,1.042-0.971,2.07-1.241,2.982c-0.258,0.88-0.456,1.681-0.714,2.508c-0.997,1.532-1.941,3.19-2.865,4.806
			c-0.999,1.749-1.973,3.447-2.882,4.81l-0.057,0.086l-0.052,0.09c-25.15,43.479-49.387,86.043-73.319,128.272l1.471,10.584
			c25.271-44.614,50.841-89.561,77.422-135.516C194.831,847.101,195.837,845.332,196.821,843.611z M220.666,830.509l1.988-1.128
			L53.351,531.136l2.423,17.431L215.822,830.51c-32.635,57.545-64.125,113.859-96.941,171.996l1.474,10.604
			c34.737-61.49,67.869-120.785,102.298-181.473L220.666,830.509z M242.276,831.568l-2.001-1.073l1.964-1.114L46.998,485.442
			l2.423,17.43L235.44,830.564c-28.036,52.113-57.642,101.489-88.257,154.818l-0.013,0.022l-0.014,0.025
			c-8.356,15.146-16.445,29.481-24.55,43.863l1.476,10.618c9.508-16.889,18.938-33.533,28.75-51.319
			C183.807,934.636,213.817,884.619,242.276,831.568z M135.755,1053.722c1.25-2.001,2.449-3.912,3.844-5.772l0.134-0.18l0.109-0.195
			c36.964-66.716,73.946-130.209,110.214-194.865l-1.481-10.652c-37.536,67.119-75.909,132.874-114.31,202.176
			c-1.542,2.076-2.806,4.104-4.02,6.046c-1.25,2.001-2.448,3.912-3.844,5.772l-0.064,0.086l1.471,10.583
			c1.295-2.302,2.6-4.614,3.917-6.938C133.271,1057.7,134.538,1055.668,135.755,1053.722z M252.305,868.883
			c-41.204,71.601-80.75,142.954-121.965,216.05l1.475,10.608c41.35-73.246,80.888-144.631,121.95-216.159L252.305,868.883z
			 M256.243,897.213c-40.649,71.977-80.783,144.147-122.015,215.688l1.456,10.477c41.313-71.506,81.459-143.642,122.033-215.559
			L256.243,897.213z M174.082,1089.527c0.5-1.512,0.903-2.65,1.621-3.725l0.015-0.023l0.009-0.014
			c11.145-17.238,19.145-34.239,30-51.001l0.042-0.064l0.041-0.071c19.293-33.281,37.648-66.082,55.825-98.628l-1.483-10.67
			c-19.538,34.987-39.194,70.213-59.922,105.971c-11.119,17.21-19.112,34.184-29.948,50.919c-1.271,1.918-1.866,3.769-2.364,5.252
			c-0.5,1.512-0.903,2.65-1.621,3.725l-0.033,0.051l-0.031,0.049c-8.023,13.038-15.083,25.138-22.139,39.25
			c-0.052,0.114-0.271,0.445-0.634,0.867c-0.54,0.641-1.37,1.482-2.227,2.534c-0.81,1.003-1.667,2.228-2.231,3.781
			c-0.342,0.685-0.684,1.367-1.036,2.065l0.786,5.653l2.839,1.498c1.3-2.465,2.315-4.494,3.314-6.493l0.104-0.207l0.073-0.219
			c0.129-0.389,0.348-0.812,0.664-1.273c0.47-0.694,1.156-1.447,1.905-2.271c0.375-0.414,0.765-0.849,1.15-1.336
			c0.384-0.488,0.77-1.028,1.104-1.693c6.937-13.874,13.87-25.763,21.836-38.709
			C172.997,1092.839,173.587,1091.001,174.082,1089.527z M189.755,1096.722c1.25-2.001,2.448-3.912,3.844-5.772l0.316-0.422
			l0.167-0.5c0.895-2.692,2.307-5.543,3.9-8.48c1.583-2.924,3.34-5.935,4.899-9.044c20.703-37.954,41.415-74.222,62.373-110.478
			l-1.455-10.462c-22.404,38.702-44.522,77.312-66.651,117.881l-0.027,0.05l-0.027,0.053c-1.435,2.872-3.167,5.846-4.826,8.906
			c-1.573,2.906-3.084,5.893-4.179,9.017c-1.463,1.993-2.676,3.94-3.845,5.808c-1.25,2.002-2.448,3.913-3.843,5.773l-0.15,0.2
			l-0.118,0.22c-8,15-15.975,29.95-24.612,44.281l5.565,3.355c8.713-14.459,16.702-29.434,24.665-44.362
			C187.286,1100.677,188.545,1098.657,189.755,1096.722z M267.804,980.375c-31.216,54.664-61.495,108.273-92.741,163.454
			l5.654,3.201c29.853-52.72,58.816-103.993,88.553-156.115L267.804,980.375z M228.755,1096.722c1.25-2.001,2.448-3.912,3.844-5.772
			l0.176-0.234l0.131-0.262c3-6.003,5.936-11.861,9.797-17.651l0.084-0.126l0.073-0.136c6.967-12.938,13.93-24.876,21.906-37.837
			l0.031-0.051l0.03-0.054c2.822-4.992,5.635-9.977,8.437-14.948l-1.477-10.619c-4.175,7.417-8.371,14.858-12.587,22.318
			c-7.983,12.975-14.989,24.983-21.989,37.976c-4.038,6.079-7.05,12.09-9.989,17.965c-1.523,2.056-2.774,4.063-3.978,5.987
			c-1.25,2.002-2.448,3.913-3.843,5.773l-0.15,0.2l-0.117,0.22c-8,15-15.979,29.959-24.456,44.307l5.594,3.305
			c8.532-14.442,16.517-29.408,24.479-44.337C226.286,1100.677,227.545,1098.657,228.755,1096.722z M242.644,1107.889l0.031-0.045
			l0.028-0.041c1.282-1.926,1.879-3.787,2.379-5.275c0.5-1.512,0.903-2.651,1.621-3.726l0.034-0.05l0.03-0.049
			c8.047-13.078,15.065-26.11,22.051-39.084c2.732-4.555,5.433-9.111,8.104-13.664l-1.447-10.409
			c-4.025,6.93-8.104,13.856-12.26,20.782l-0.038,0.063l-0.037,0.068c-6.991,12.984-13.952,25.908-21.876,38.789
			c-1.259,1.907-1.85,3.748-2.346,5.225c-0.493,1.489-0.892,2.617-1.59,3.679c-2.605,3.655-4.655,7.251-6.648,10.736
			c-2,3.502-3.943,6.893-6.324,10.224l-0.148,0.207l-0.114,0.229c-3,6.002-5.952,11.898-9.803,18.186l5.541,3.395
			c3.976-6.491,6.999-12.524,9.962-18.45c2.548-3.595,4.566-7.134,6.527-10.565C238.321,1114.609,240.263,1111.22,242.644,1107.889z
			 M279.496,1064.471c-12.444,22.607-25.795,42.874-37.401,66.076c-0.353,0.711-0.929,1.57-1.646,2.519
			c-1.075,1.431-2.458,3.054-3.762,4.936c-1.299,1.882-2.542,4.054-3.19,6.644l6.305,1.57c0.247-0.991,0.677-1.982,1.259-2.993
			c0.868-1.518,2.076-3.054,3.326-4.634c1.246-1.59,2.546-3.206,3.521-5.135c10.116-20.242,21.752-38.452,33.07-58.335
			L279.496,1064.471z M283.253,1091.503c-9.821,17.39-19.73,34.798-29.834,52.303l5.628,3.248
			c8.684-15.046,17.219-30.011,25.679-44.954L283.253,1091.503z M287.038,1118.727c-0.545,0.874-1.079,1.752-1.594,2.637
			c-1.764,3.026-3.329,6.117-4.429,9.322c-0.103,0.162-0.291,0.422-0.555,0.729c-0.54,0.641-1.37,1.482-2.227,2.534
			c-0.81,1.003-1.667,2.228-2.231,3.781c-0.97,1.94-1.953,3.906-3.106,6.28l5.844,2.84c1.172-2.411,2.165-4.396,3.165-6.396
			l0.104-0.207l0.073-0.219c0.129-0.389,0.347-0.812,0.663-1.273c0.47-0.694,1.156-1.447,1.906-2.271
			c0.375-0.414,0.765-0.849,1.15-1.336c0.385-0.488,0.771-1.028,1.105-1.693l0.104-0.207l0.073-0.219
			c0.392-1.178,0.879-2.378,1.444-3.598L287.038,1118.727z" />
			<path fill="#133E62" d="M-60.158,102.574c14.175-25.602,28.749-51.022,43.298-76.471l-1.464-10.532
			c-15.927,27.882-31.951,55.74-47.518,83.855c-8.928,16.126-17.246,32.402-26.678,47.991l5.56,3.363
			C-77.37,134.927-69.018,118.572-60.158,102.574z M-30.815-17.019l-5.686-3.145C-54.785,12.895-72.984,45.962-92.43,78.254
			l5.566,3.352C-67.331,49.169-49.096,16.031-30.815-17.019z M66.055,622.521L-85.588,355.387
			c30.757-54.067,61.448-107.868,92.04-161.604l-1.468-10.557c-32.257,56.673-64.651,113.451-97.1,170.495l0.056,0.031l-1.457,0.827
			L68.478,639.952L66.055,622.521z M-86.517,218.98c10.942-20.15,22.458-39.955,33.967-59.839c1.326-2.294,2.767-4.535,4.161-6.909
			c1.392-2.373,2.735-4.886,3.808-7.701c0.857-2.258,2.138-4.553,3.583-6.896c1.443-2.345,3.046-4.731,4.496-7.238
			c5.697-9.868,10.776-19.944,16.364-29.58c3.681-6.35,7.352-12.704,11.015-19.063l-1.458-10.492
			c-5.043,8.774-10.103,17.541-15.178,26.297c-5.712,9.857-10.793,19.936-16.369,29.589c-1.299,2.251-2.869,4.597-4.401,7.08
			c-1.53,2.485-3.026,5.112-4.124,7.991c-0.885,2.326-2.037,4.506-3.34,6.727c-1.301,2.221-2.753,4.477-4.179,6.941
			c-11.504,19.877-23.051,39.732-34.054,59.992c-0.112,0.206-0.222,0.41-0.331,0.609l5.709,3.102
			C-86.735,219.383-86.625,219.18-86.517,218.98z M-70.027-16.52l-5.638-3.23c-5.129,8.952-10.287,17.888-15.481,26.799
			l-0.067,3.063l4.329,2.527C-81.224,2.943-75.608-6.779-70.027-16.52z M-86.805,185.014
			c24.859-42.736,49.458-86.132,74.025-129.565l-1.473-10.594c-25.956,45.897-51.925,91.776-78.168,136.892L-86.805,185.014z
			 M-92.531,250.943l5.662,3.189c5.576-9.9,11.162-19.795,16.756-29.685c21.559-38.112,43.244-76.155,64.954-114.189L-6.625,99.72
			c-0.139,0.243-0.279,0.489-0.417,0.731c-22.966,40.23-45.916,80.473-68.726,120.798
			C-81.365,231.142-86.953,241.039-92.531,250.943z M-8.128,1100.521l0.035-0.068c6.881-13.773,14.841-25.721,22.915-39.842
			l0.023-0.041l0.025-0.045c29.125-54.785,59.725-106.729,89.951-159.164l-1.458-10.489
			C71.82,945.713,39.709,999.965,9.159,1057.423c-7.907,13.841-15.927,25.87-23.03,40.055
			c-9.006,16.015-16.988,30.977-25.871,46.148l5.607,3.283c8.981-15.341,16.989-30.357,25.967-46.316L-8.128,1100.521z
			 M-50.117-16.773l-5.665-3.183v-0.001C-67.668,1.197-79.248,22.45-91.94,42.965l-0.024,1.07l5.059,3.141
			C-73.894,26.209-62.127,4.598-50.117-16.773z M-32.763,6.287l-0.053,0.092c-18.995,32.992-35.998,63.993-53.984,97.966
			c-1.086,1.655-1.849,3.184-2.595,4.46c-0.77,1.324-1.494,2.375-2.503,3.315l4.427,4.756c1.675-1.558,2.792-3.255,3.693-4.806
			c0.903-1.561,1.617-2.98,2.48-4.269l0.091-0.137l0.077-0.146c17.971-33.944,34.935-64.88,53.895-97.813
			c2.467-3.708,4.597-7.238,6.604-10.726l-1.479-10.635c-3.345,6.024-6.506,11.721-10.595,17.852L-32.763,6.287z M-86.929,663.548
			l-5.623,3.256c31.384,54.208,62.046,108.594,93.078,163.944c-0.957,2.017-2.121,4.005-3.377,6.066
			c-1.636,2.688-3.429,5.497-5.018,8.661c-23.954,42.915-46.942,80.896-70.967,123.94l-0.037,0.065l-0.033,0.065
			c-4.04,8.096-7.983,16.912-13.456,24.376l5.242,3.838c5.99-8.195,10.041-17.351,13.99-25.238
			c23.952-42.911,46.942-80.897,70.966-123.939l0.037-0.066l0.032-0.063c1.402-2.807,3.095-5.477,4.792-8.259
			c1.693-2.782,3.393-5.681,4.703-8.956l-2.026-0.81l1.843-1.032C-24.168,773.407-55.176,718.395-86.929,663.548z M-5.145,992.555
			l0.051-0.102c1.047-2.096,2.062-4.383,3.063-6.634c0.98-2.206,1.947-4.378,2.883-6.257
			c30.027-50.058,56.017-99.034,84.677-147.886l-1.984-1.164l1.996-1.15C49.817,767.381,14.823,706.392-21.168,642.407
			c-22.017-40.03-44.016-78.028-65.675-116.719l-5.669,3.174h0c21.694,38.752,43.689,76.743,65.667,116.703l0.007,0.014l0.008,0.014
			c35.6,63.288,70.217,123.636,105.524,184.899C50.408,878.836,24.73,927.136-4.786,976.328l-0.065,0.108l-0.055,0.11
			c-1.047,2.096-2.063,4.383-3.063,6.634c-0.981,2.208-1.949,4.382-2.885,6.263c-29.022,49.045-54.009,96.018-81.62,142.644
			l5.591,3.311c27.728-46.828,52.726-93.824,81.679-142.743L-5.145,992.555z M-85.21,1097.072c0.645-0.897,1.504-1.775,2.507-2.775
			l0.374-0.373l0.235-0.471c5.888-11.78,11.844-21.723,17.871-33.742c1.523-2.058,2.775-4.064,3.978-5.989
			c1.25-2.001,2.448-3.912,3.844-5.772l0.105-0.14l0.089-0.149c22.08-37.143,39.066-72.108,61.951-108.919
			c1.255-1.904,1.844-3.74,2.339-5.214c0.5-1.512,0.903-2.651,1.621-3.726l0.04-0.06l0.036-0.059
			c20.073-33.125,37.079-66.135,56.149-97.981l-1.972-1.181l2.009-1.143C14.835,739.413-35.17,649.405-86.956,559.992l-5.623,3.256
			C-41.238,651.892,8.374,741.163,59.104,830.457c-18.691,31.41-35.37,63.661-54.849,95.804c-1.254,1.903-1.843,3.739-2.337,5.212
			c-0.5,1.511-0.904,2.65-1.621,3.726l-0.03,0.045l-0.025,0.042c-23.077,37.13-40.074,72.111-61.945,108.906
			c-1.556,2.091-2.829,4.132-4.051,6.087c-1.25,2.001-2.448,3.912-3.844,5.772l-0.175,0.233l-0.131,0.263
			c-5.853,11.711-11.774,21.604-17.764,33.529c-0.902,0.906-1.893,1.927-2.813,3.2c-1.047,1.444-1.972,3.245-2.454,5.405
			l6.338,1.432C-86.314,1098.876-85.854,1097.978-85.21,1097.072z M36.979,951.705c20.039-35.301,40.078-70.601,60.116-105.901
			l-1.47-10.573c-21.431,37.756-42.864,75.511-64.297,113.267c-22.856,40.265-45.713,80.53-68.57,120.794
			c-14.101,24.84-28.2,49.678-42.3,74.517l5.65,3.208c14.101-24.839,28.2-49.678,42.3-74.518
			C-8.734,1032.234,14.123,991.97,36.979,951.705z M-9.192,1068.458c22.579-39.741,45.176-79.475,67.596-119.32
			c14.175-25.191,28.342-50.381,42.556-75.546l-1.474-10.6c-15.621,27.634-31.181,55.299-46.745,82.96
			c-22.41,39.828-45.003,79.554-67.583,119.297c-7.485,13.175-14.842,26.403-22.285,39.563c-3.702,6.544-7.425,13.073-11.193,19.571
			c-1.893,3.263-3.931,6.422-6.033,9.67c-0.75,1.169-1.984,2.726-3.18,4.431c-0.599,0.856-1.192,1.759-1.719,2.721
			c-0.526,0.963-0.992,1.984-1.298,3.116l6.277,1.68c0.114-0.434,0.358-1.02,0.718-1.673c0.537-0.984,1.321-2.111,2.159-3.252
			c0.839-1.146,1.728-2.305,2.499-3.493c2.103-3.251,4.202-6.499,6.197-9.939c3.784-6.525,7.519-13.075,11.228-19.632
			C-24.013,1094.824-16.659,1081.6-9.192,1068.458z M-86.499,1030.902c0.239-1.116,0.663-1.959,1.297-2.844
			c0.632-0.879,1.497-1.763,2.499-2.762l0.317-0.317l0.22-0.392C-45.174,958.604-9.175,895.605,26.8,831.625l-1.931-1.086
			l2.012-0.993c-0.987-1.997-2.014-4.07-3.223-6.092c-1.132-1.89-2.427-3.741-4.028-5.411
			c-35.941-64.884-70.878-125.776-106.48-188.857l-5.658,3.193c35.686,63.231,70.681,124.223,106.666,189.195l0.222,0.399
			l0.323,0.323c1.244,1.243,2.348,2.768,3.381,4.495c0.676,1.127,1.319,2.338,1.958,3.597
			c-35.527,63.162-71.099,125.428-107.656,190.633c-0.916,0.92-1.923,1.948-2.852,3.229c-1.036,1.425-1.952,3.199-2.391,5.318
			L-86.499,1030.902z M-87.002,766.934l-5.505,3.452c12.15,19.361,21.877,40.495,34.004,60.122
			c-12.127,19.611-21.854,40.746-34.005,60.125l5.506,3.449c12.9-20.605,22.901-42.605,35.373-62.313l-1.994-1.261l1.994-1.26
			C-64.1,809.523-74.102,787.523-87.002,766.934z M-35.255,838.738l0.088-0.14l0.073-0.146c0.393-0.793,0.625-1.527,0.823-2.188
			c0.289-0.993,0.504-1.833,0.766-2.46c0.264-0.636,0.517-1.021,0.876-1.344l-1.598-1.796l2.262-1.288
			c-18.216-31.993-37.212-64.986-54.892-96.699l-5.675,3.164c17.269,30.974,35.767,63.126,53.555,94.353
			c-0.668,1.243-1.003,2.414-1.274,3.351c-0.235,0.852-0.436,1.518-0.593,1.875c-19.062,30.125-34.056,60.108-51.644,89.678
			l5.585,3.32C-69.13,898.524-54.146,868.56-35.255,838.738z M-12.389,831.657l-1.99-1.148l1.99-1.147
			c-24.761-42.921-48.767-87.934-74.5-131.237l-5.585,3.318c25.215,42.431,48.845,86.656,73.248,129.066
			c-24.404,42.394-48.033,86.619-73.249,129.066l5.586,3.318C-61.156,919.572-37.15,874.56-12.389,831.657z M-77.91,830.408
			c-1.47,2.59-2.94,5.18-4.411,7.771c-3.405,6-6.811,11.998-10.217,17.999l5.651,3.207c3.405-6,6.812-11.999,10.217-17.999
			c1.845-3.25,3.689-6.499,5.535-9.749l-1.939-1.1l2.014-1.017c-5.156-10.205-11.187-19.25-15.79-27.823l-5.723,3.078
			C-88.09,813.103-82.614,821.43-77.91,830.408z M-86.883,594.622l-5.633,3.238C-48.229,674.9-4.618,753.182,39.542,830.509
			C-4.618,907.818-48.229,986.1-92.517,1063.157l5.634,3.237c44.714-77.801,88.716-156.804,133.259-234.749l-1.989-1.137
			l1.989-1.136C1.833,751.409-42.169,672.406-86.883,594.622z M221.306,353.758l-1.449,0.822l152.23,268.17l-2.423-17.432
			L227.784,355.383c28.614-50.558,57.397-100.892,86.12-151.156l-1.464-10.534c-30.395,53.196-60.889,106.496-91.185,160.036
			L221.306,353.758z M251.685,265.619c-8.174,14.4-16.349,28.801-24.523,43.201c-5.745,10.119-11.489,20.238-17.233,30.358
			c-2.65,4.669-5.301,9.337-7.952,14.007l0-0.001c-0.102,0.18-0.204,0.359-0.306,0.539l0.055,0.031l-1.454,0.825l178.167,313.861
			l-2.423-17.43L208.2,355.385c2.46-4.333,4.919-8.666,7.379-12.999c5.744-10.119,11.489-20.239,17.233-30.358
			c8.174-14.4,16.349-28.801,24.523-43.201c9.94-17.512,19.881-35.023,29.822-52.535c7.611-13.407,15.221-26.813,22.832-40.221
			l-1.47-10.572c-9.004,15.861-18.009,31.725-27.013,47.586C271.566,230.596,261.625,248.107,251.685,265.619z M45.625,724.542
			c-10.384-18.292-20.769-36.585-31.152-54.877c-11.263-19.842-22.527-39.686-33.791-59.526
			c-11.479-20.223-22.959-40.444-34.438-60.668c-11.031-19.432-22.063-38.865-33.094-58.297l-5.65,3.207l33.094,58.298
			c11.479,20.223,22.958,40.444,34.438,60.667c11.263,19.842,22.527,39.686,33.791,59.526
			c10.384,18.292,20.768,36.585,31.152,54.877c8.839,15.573,17.68,31.147,26.521,46.72c6.632,11.684,13.264,23.367,19.897,35.051
			c2.499,4.401,4.997,8.804,7.496,13.205l-2.423-17.431c-6.44-11.345-12.88-22.688-19.319-34.033
			C63.305,755.688,54.464,740.115,45.625,724.542z M240.9,353.753l-1.457,0.827l126.291,222.477l-2.423-17.432L247.373,355.386
			c23.5-41.286,46.972-82.444,70.374-123.516l-1.467-10.551c-25.08,44.021-50.24,88.133-75.436,132.401L240.9,353.753z
			 M145.39-17.008l-5.65-3.207c-2.955,5.205-5.911,10.413-8.866,15.619l1.47,10.572C136.692-1.685,141.041-9.347,145.39-17.008z
			 M136.196,33.691c9.593-16.899,19.188-33.8,28.78-50.699l-5.65-3.207c-8.2,14.444-16.399,28.889-24.599,43.334L136.196,33.691z
			 M317.787,354.58l22.539,39.705l-2.423-17.432l-12.227-21.539c2.397-4.618,4.843-9.182,7.327-13.71l-1.489-10.71
			c-4.221,7.528-8.363,15.132-12.376,22.92L317.787,354.58z M299.674,353.744l-1.473,0.836l48.477,85.396l-2.423-17.43
			l-38.12-67.151c7.75-13.468,15.465-26.946,23.161-40.446l-1.467-10.552c-9.37,16.458-18.774,32.901-28.22,49.31L299.674,353.744z
			 M288.271,339.179c-2.65,4.669-5.301,9.337-7.951,14.007l0-0.001c-0.103,0.18-0.205,0.359-0.306,0.539l0.055,0.031l-1.454,0.825
			l74.415,131.091l-2.423-17.432l-64.064-112.854c2.46-4.333,4.92-8.666,7.379-12.999c5.744-10.119,11.489-20.239,17.233-30.358
			c4.749-8.365,9.498-16.73,14.247-25.096l-1.47-10.573c-6.143,10.82-12.285,21.642-18.428,32.462
			C299.76,318.939,294.016,329.059,288.271,339.179z M285.918,308.82c-5.745,10.119-11.489,20.238-17.233,30.358
			c-2.65,4.669-5.301,9.337-7.952,14.007l0.001-0.001c-0.102,0.18-0.204,0.359-0.307,0.539l0.055,0.031l-1.454,0.825
			l100.353,176.782l-2.423-17.43l-90.002-158.548c2.46-4.333,4.919-8.666,7.379-12.999c5.745-10.119,11.489-20.239,17.233-30.358
			c8.175-14.4,16.349-28.801,24.524-43.201c1.818-3.203,3.637-6.407,5.456-9.61l-1.47-10.572
			c-3.212,5.658-6.424,11.316-9.636,16.976C302.268,280.02,294.093,294.42,285.918,308.82z M-26.597,493.322
			c-0.915-2.344-2.018-4.885-3.804-7.271c-1.396-1.86-2.594-3.771-3.844-5.772c-1.217-1.946-2.483-3.977-4.029-6.058
			c-16.935-29.892-31.913-57.846-48.676-86.731l-5.62,3.262c16.724,28.817,31.719,56.808,48.743,86.851l0.103,0.182l0.125,0.166
			c1.396,1.86,2.594,3.771,3.843,5.772c1.25,1.999,2.552,4.088,4.156,6.228c1.214,1.613,2.111,3.572,2.946,5.729
			c0.842,2.152,1.607,4.483,2.747,6.775l0.037,0.074l0.042,0.074c35.592,62.84,70.251,123.819,104.859,184.494l-2.412-17.346
			c-31.917-55.988-63.939-112.342-96.75-170.272C-24.974,497.78-25.701,495.639-26.597,493.322z M12.737,631.242l-0.093-0.131
			c-2.381-3.331-4.323-6.722-6.323-10.224c-1.969-3.444-3.994-6.997-6.556-10.607c-6.968-12.939-13.971-25.939-21.998-38.983
			l-0.03-0.049l-0.033-0.05c-0.717-1.075-1.121-2.215-1.621-3.726c-0.5-1.489-1.096-3.35-2.379-5.275l-0.051-0.076l-0.053-0.07
			c-1.396-1.86-2.594-3.771-3.844-5.772c-1.211-1.938-2.472-3.96-4.009-6.03c-6.945-12.898-13.926-25.855-21.922-38.857
			c-10.005-19.006-20.02-37.031-30.686-54.738l-5.565,3.354c10.604,17.605,20.574,35.549,30.552,54.508l0.051,0.096l0.058,0.094
			C-53.83,527.6-46.86,540.54-39.86,553.54l0.115,0.215l0.146,0.194c1.396,1.86,2.594,3.771,3.844,5.772
			c1.235,1.974,2.52,4.036,4.097,6.149c0.689,1.054,1.086,2.177,1.575,3.656c0.497,1.478,1.088,3.319,2.349,5.229
			c7.923,12.878,14.883,25.801,21.873,38.783l0.098,0.182l0.119,0.167c2.38,3.331,4.323,6.722,6.323,10.223
			c1.976,3.456,4.008,7.021,6.583,10.644c27.958,48.75,53.869,95.46,80.283,142.345l-2.447-17.602
			c-23.654-42.096-47.132-84.267-72.28-128.114L12.737,631.242z M-47.042,308.82c-5.744,10.119-11.489,20.238-17.233,30.358
			c-2.65,4.669-5.3,9.337-7.951,14.007c-0.102,0.179-0.204,0.358-0.306,0.538l0.055,0.031l-1.454,0.825L62.126,594.26l-2.423-17.432
			L-66.003,355.385c2.46-4.334,4.919-8.666,7.379-12.999c5.744-10.119,11.489-20.239,17.233-30.358
			c8.175-14.4,16.349-28.801,24.524-43.201l27.111-47.76l-1.47-10.573c-0.49,0.863-0.98,1.728-1.471,2.591
			c-9.94,17.512-19.881,35.023-29.822,52.535C-30.692,280.02-38.867,294.42-47.042,308.82z M-92.522,319.934l5.651,3.208
			c18.54-32.661,37.081-65.321,55.621-97.982c11.263-19.842,22.525-39.682,33.789-59.523l-1.47-10.572
			c-12.657,22.296-25.314,44.593-37.97,66.888C-55.441,254.613-73.981,287.272-92.522,319.934z M-33.273,353.737l-1.485,0.843
			l84.18,148.292l-2.423-17.43l-73.819-130.04c15.324-26.406,30.091-52.596,44.779-78.848l-1.482-10.663
			c-16.356,29.269-32.743,58.411-49.82,87.805L-33.273,353.737z M-27.456,308.82c-5.744,10.119-11.489,20.238-17.233,30.358
			c-2.65,4.669-5.301,9.337-7.951,14.007c-0.102,0.179-0.204,0.358-0.306,0.538l0.055,0.031l-1.454,0.825L55.773,548.566
			l-2.423-17.431l-99.768-175.751c2.459-4.333,4.919-8.666,7.379-12.999c5.744-10.119,11.489-20.239,17.233-30.358
			c8.175-14.4,16.349-28.801,24.524-43.201c3.793-6.681,7.586-13.363,11.379-20.045l-1.47-10.572
			c-5.186,9.137-10.373,18.273-15.559,27.41C-11.106,280.02-19.281,294.42-27.456,308.82z M-87.839,277.495
			c-1.479,2.792-2.856,5.43-4.545,7.737l5.247,3.833c2.072-2.843,3.576-5.778,5.037-8.523c1.458-2.75,2.868-5.306,4.637-7.513
			l0.176-0.22l0.135-0.246c25.521-46.488,51.082-88.875,75.924-134.022l-1.5-10.791c-26.02,47.8-52.981,92.275-79.988,141.447
			C-84.854,271.922-86.397,274.783-87.839,277.495z M43.753,653.271l-0.05-0.073c-0.718-1.075-1.121-2.215-1.621-3.726
			c-0.496-1.476-1.086-3.317-2.346-5.225c-7.924-12.881-14.885-25.805-21.876-38.788l-0.034-0.063l-0.037-0.062
			c-36.949-61.913-68.943-121.9-104.629-183.148l-5.614,3.271c35.596,61.089,67.594,121.085,104.63,183.151
			c6.988,12.977,14.007,26.013,22.057,39.094l0.03,0.049l0.034,0.05c0.718,1.074,1.121,2.214,1.621,3.726
			c0.492,1.467,1.079,3.293,2.321,5.187c12.932,21.887,23.923,42.867,36.964,64.938l0.091,0.154l0.107,0.143
			c1.396,1.86,2.594,3.771,3.844,5.772c0.592,0.947,1.196,1.914,1.837,2.897l-2.146-15.437
			c-12.153-20.772-22.716-40.809-35.14-61.836L43.753,653.271z M6.118,353.186c-0.101,0.179-0.203,0.358-0.306,0.538l0.055,0.031
			l-1.454,0.825l32.304,56.906l-2.423-17.43l-21.953-38.672c2.46-4.334,4.919-8.666,7.379-12.999
			c1.979-3.485,3.958-6.972,5.937-10.458l-1.47-10.573c-3.373,5.941-6.745,11.883-10.117,17.824
			C11.419,343.848,8.769,348.516,6.118,353.186z M-13.723,353.758l-1.45,0.822l58.242,102.601l-2.423-17.432l-47.892-84.367
			c9.669-17.077,19.353-34.12,29.052-51.154l-1.467-10.552c-11.389,19.99-22.762,39.999-34.114,60.052L-13.723,353.758z
			 M25.453,353.755l-1.454,0.825l6.366,11.214l-1.911-13.743l-0.415-2.98c-0.778,1.372-1.557,2.743-2.335,4.115
			c-0.102,0.179-0.204,0.358-0.306,0.538L25.453,353.755z M333.821,843.611c0.998-1.748,1.973-3.446,2.882-4.81l0.242-0.362
			l0.137-0.412c0.284-0.853,0.489-1.606,0.664-2.238c0.261-0.954,0.463-1.598,0.684-2.034c0.227-0.439,0.438-0.749,1.002-1.233
			l-1.548-1.844l2.284-1.297L216.535,611.588l2.423,17.43l114.111,201.02c-0.65,1.05-1.022,2.097-1.301,3.021
			c-0.267,0.891-0.465,1.695-0.725,2.524c-0.997,1.532-1.941,3.19-2.865,4.806c-0.998,1.749-1.973,3.447-2.882,4.81l-0.063,0.094
			l-0.055,0.098c-20.829,36.451-41.221,71.351-61.38,106.175l1.455,10.462c21.489-37.175,43.243-74.348,65.514-113.319
			C331.833,847.095,332.839,845.329,333.821,843.611z M318.823,904.607l0.011-0.021c14.047-25.087,26.025-49.036,40.852-72.836
			l-1.959-1.22l2.026-1.15L210.183,565.895l2.423,17.431L352.87,830.416c-14.422,23.42-26.146,46.786-39.687,70.965
			c-15.471,26.752-30.531,52.993-45.379,78.994l1.465,10.54c16.196-28.388,32.622-57.029,49.543-86.288L318.823,904.607z
			 M398.946,831.602l-1.995-1.1l1.975-1.121L197.479,474.509l2.423,17.431l192.209,338.599
			c-27.722,50.211-56.329,99.539-85.925,150.838l-0.012,0.021l-0.009,0.017c-10.113,18.059-20.219,36.104-30.691,54.133
			l1.447,10.409c12.01-20.469,23.462-40.92,34.904-61.352C341.819,932.615,370.826,882.604,398.946,831.602z M377.347,830.512
			l1.993-1.131L203.831,520.202l2.423,17.43l166.248,292.863c-33.929,59.042-66.698,118.104-100.713,178.536l1.477,10.619
			c35.936-63.765,70.354-125.904,106.066-187.997L377.347,830.512z M318.586,830.514l1.996-1.133L222.887,657.28l2.423,17.431
			l88.43,155.778c-18.23,31.545-35.86,63.095-53.588,94.842l1.483,10.67c19.54-34.986,38.872-69.678,58.933-104.34L318.586,830.514z
			 M279.411,830.516l2-1.135l-45.818-80.714l2.423,17.43l36.547,64.382c-7.487,12.821-14.896,25.611-22.257,38.404l1.459,10.499
			c9.122-15.891,18.316-31.782,27.625-47.71L279.411,830.516z M299.005,830.511l1.991-1.13L229.24,702.974l2.423,17.431
			l62.497,110.095c-12.72,22.203-25.342,44.448-37.917,66.714l1.474,10.605c14.348-25.432,28.745-50.828,43.272-76.17
			L299.005,830.511z M395.072,788.089L191.126,428.816l2.423,17.43L397.496,805.52L395.072,788.089z M259.846,830.504l1.979-1.123
			l-19.88-35.021l2.423,17.432l10.638,18.739c-2.139,3.843-4.286,7.692-6.43,11.526l1.481,10.652
			c3.936-7.017,7.864-14.048,11.783-21.098L259.846,830.504z M286.992,1064.297l0.09-0.27c1-3.012,1.903-5.65,3.621-8.226
			l0.015-0.022l0.009-0.015c11.097-17.153,20.121-34.202,30.072-51.117l0.018-0.03l0.018-0.031
			c28.283-50.566,55.838-98.941,83.725-148.247l-1.473-10.597c-29.305,51.852-58.198,102.527-87.905,155.64
			c-10.038,17.069-19.008,34.006-29.9,50.838c-2.204,3.315-3.299,6.568-4.274,9.482c-0.502,0.927-1.007,1.85-1.513,2.769
			l1.48,10.647c1.973-3.466,3.937-6.984,5.881-10.571L286.992,1064.297z M429.987,1039.233
			c-19.75,34.833-39.449,69.69-59.071,104.604l5.665,3.184c18.232-32.44,36.531-64.834,54.877-97.207L429.987,1039.233z
			 M424.755,1096.722c1.25-2.001,2.448-3.912,3.844-5.772l0.317-0.422l0.167-0.5c0.895-2.692,2.306-5.543,3.899-8.48
			c0.743-1.373,1.525-2.766,2.307-4.178l-1.494-10.745c-0.531,0.909-1.065,1.824-1.599,2.735l-0.054,0.092l-0.048,0.096
			c-1.435,2.872-3.167,5.846-4.825,8.906c-1.573,2.906-3.084,5.893-4.179,9.017c-1.463,1.994-2.677,3.94-3.845,5.808
			c-1.25,2.002-2.448,3.913-3.844,5.773l-0.15,0.2l-0.118,0.22c-8,15-15.975,29.952-24.584,44.286l5.57,3.346
			c8.68-14.455,16.669-29.429,24.631-44.357C422.286,1100.677,423.545,1098.657,424.755,1096.722z M388.72,742.397L184.774,383.123
			l2.423,17.43l203.947,359.274L388.72,742.397z M437.867,1095.918c-8.911,16.126-17.952,32.045-27.708,47.801l5.524,3.422
			c8.306-13.416,16.078-26.912,23.672-40.518L437.867,1095.918z M426.238,1012.271c-24.826,43.802-49.681,87.437-74.896,131.547
			l5.641,3.225c23.803-41.64,47.285-82.856,70.726-124.191L426.238,1012.271z M441.549,1122.404
			c-4.119,6.977-8.313,14.088-11.965,21.605l5.845,2.84c2.315-4.769,4.893-9.43,7.564-14.058L441.549,1122.404z M422.308,984.002
			c-30.25,53.198-60.48,106.462-90.562,159.832l5.66,3.191c28.689-50.902,57.518-101.711,86.37-152.46L422.308,984.002z
			 M373.755,944.722c1.25-2.001,2.448-3.912,3.844-5.772l0.053-0.07l0.051-0.077c2.199-3.299,3.296-6.538,4.268-9.442
			c9.142-15.439,17.623-30.525,26.371-45.821l-1.461-10.509c-10.341,17.953-20.079,35.434-30.676,53.314l-0.177,0.299l-0.11,0.33
			c-0.991,2.983-1.887,5.602-3.574,8.153c-1.578,2.114-2.864,4.177-4.099,6.152c-1.25,2.001-2.449,3.912-3.844,5.772l-0.125,0.166
			l-0.103,0.181c-27.839,49.085-54.056,96.537-80.92,144.105l1.473,10.597c28.321-50.029,55.781-99.801,84.998-151.317
			C371.271,948.7,372.538,946.669,373.755,944.722z M326.755,1096.722c1.25-2.001,2.448-3.912,3.844-5.772l0.176-0.234l0.131-0.262
			c3-6.003,5.937-11.861,9.797-17.651l0.075-0.112l0.066-0.12c15.978-28.959,30.972-54.95,46.987-83.977
			c9.536-16.61,18.979-32.845,28.315-48.912l-1.451-10.438c-10.692,18.41-21.538,37.021-32.514,56.14l-0.013,0.022l-0.014,0.025
			c-15.96,28.927-30.94,54.894-46.935,83.881c-4.042,6.083-7.058,12.1-9.999,17.979c-1.523,2.057-2.774,4.063-3.978,5.987
			c-1.25,2.002-2.448,3.913-3.844,5.773l-0.15,0.2l-0.117,0.22c-8,15-15.978,29.956-24.52,44.296l5.582,3.326
			c8.605-14.449,16.593-29.419,24.555-44.348C324.286,1100.677,325.545,1098.657,326.755,1096.722z M296.8,1115.656l0.081-0.153
			c11.947-22.899,24.908-44.837,38.895-67.813l0.025-0.043l0.025-0.043c26.27-46.286,51.366-91.006,76.472-135.611l-1.477-10.622
			c-26.501,47.067-52.908,94.153-80.618,142.976c-13.974,22.959-26.978,44.962-39.001,67.994c-1.402,2.104-2.819,4.23-4.164,6.387
			l1.488,10.703c0.727-1.57,1.583-3.17,2.53-4.793c1.682-2.885,3.647-5.836,5.647-8.835L296.8,1115.656z M418.46,956.323
			c-35.362,62.407-70.651,124.881-106.293,187.499l5.647,3.215c34.242-60.16,68.159-120.185,102.118-180.13L418.46,956.323z
			 M208.813,216.291l33.129-58.359c11.481-20.226,22.962-40.451,34.443-60.676c6.064-10.683,12.128-21.364,18.192-32.047
			l-1.47-10.572c-7.458,13.138-14.915,26.273-22.373,39.411c-11.481,20.226-22.963,40.451-34.443,60.677
			c-11.043,19.453-22.086,38.906-33.129,58.359c-9.94,17.512-19.881,35.023-29.822,52.535c-1.313,2.313-2.625,4.625-3.938,6.938
			l1.47,10.572c2.707-4.768,5.413-9.535,8.119-14.303C188.932,251.314,198.873,233.803,208.813,216.291z M127.807,1102.637
			l0.021-0.038c1.33-2.354,2.66-4.708,3.986-7.058l-1.475-10.608c-2.71,4.807-5.423,9.611-8.148,14.434
			c-8.956,14.931-18.008,29.003-25.57,44.649l5.851,2.828c7.339-15.199,16.277-29.117,25.314-44.172L127.807,1102.637z
			 M116.325,1143.793l5.614,3.273c4.598-7.889,9.178-15.785,13.745-23.689l-1.456-10.477
			C128.285,1123.212,122.318,1133.511,116.325,1143.793z M126.336,1056.137l-0.06,0.08l-0.103,0.182
			c-17.024,30.043-32.019,58.033-49.024,87.403l5.624,3.256c15.714-27.143,29.676-53.03,45.035-80.338L126.336,1056.137z
			 M135.844,1143.913l2.908,1.535l-0.786-5.653C137.321,1141.075,136.638,1142.41,135.844,1143.913z M178.883-20.164
			c-13.01,23.924-26.739,47.035-40.28,71.167l1.484,10.679c14.821-26.761,30.058-52.184,44.503-78.74L178.883-20.164z
			 M198.483-20.19c-18.477,33.212-37.149,66.392-55.938,99.558l1.471,10.582c20.207-35.636,40.287-71.285,60.145-106.981
			L198.483-20.19z M382.368,696.704l-193.783-341.37c7.784-14.567,16.456-28.175,24.278-43.797
			c32.412-55.987,60.949-108.082,93.179-163.853l-1.39-9.996c-0.728,1.149-1.487,2.29-2.297,3.423l-0.09,0.127l-0.078,0.134
			c-33.025,57.044-62.025,110.043-95,167l-0.05,0.087l-0.044,0.182C199.197,324.445,190.216,338,182.037,354h0.001l-1.242,0.611
			l0.048,0.296l203.947,359.251L382.368,696.704z M112.36,955.599l-1.47-10.568c-31.306,55.091-62.497,110.544-94.716,167.367
			l-0.042,0.074l-0.038,0.075c-1.4,2.806-3.115,5.507-4.798,8.479c-1.652,2.925-3.269,6.126-4.37,9.906
			c-0.365,0.87-0.878,1.722-1.521,2.61c-1.008,1.406-2.341,2.872-3.658,4.623c-1.308,1.748-2.611,3.838-3.28,6.461l6.296,1.605
			c0.248-0.972,0.659-1.86,1.227-2.779c0.845-1.378,2.063-2.784,3.372-4.4c1.297-1.619,2.699-3.472,3.652-5.846l0.062-0.154
			l0.046-0.16c0.898-3.143,2.258-5.889,3.83-8.669c1.554-2.756,3.323-5.531,4.913-8.693
			C52.643,1061.253,82.479,1008.229,112.36,955.599z M114.869,973.646c-32.228,56.867-63.9,113.126-96.487,170.173l5.642,3.223
			c31.189-54.6,61.533-108.463,92.316-162.812L114.869,973.646z M76.082,1089.527c0.498-1.504,0.9-2.641,1.611-3.711
			c9.14-13.215,15.171-25.281,23.073-38.114l0.03-0.048l0.029-0.051c6.576-11.588,13.082-23.08,19.529-34.494l-1.474-10.604
			c-7.808,13.832-15.688,27.764-23.68,41.844c-8.074,13.136-14.036,25.045-22.873,37.801l-0.014,0.021l-0.018,0.026
			c-1.282,1.925-1.878,3.785-2.378,5.274c-0.5,1.512-0.903,2.65-1.621,3.725l-0.033,0.051l-0.031,0.049
			c-7.976,12.963-14.942,25.883-21.868,38.744c-0.906,0.909-1.88,1.903-2.804,3.09c-0.996,1.277-1.928,2.799-2.563,4.61
			c-0.968,1.937-1.943,3.886-3.116,6.239l5.815,2.898c1.211-2.428,2.21-4.426,3.21-6.426l0.104-0.207l0.073-0.219
			c0.364-1.085,0.896-1.989,1.607-2.908c0.709-0.914,1.606-1.823,2.608-2.822l0.336-0.337l0.227-0.42
			c6.992-12.985,13.955-25.914,21.881-38.796C74.998,1092.839,75.587,1091.001,76.082,1089.527z M91.755,1096.722
			c1.25-2.001,2.449-3.912,3.844-5.772l0.176-0.234l0.13-0.262c3-6.003,5.937-11.861,9.797-17.651l0.075-0.112l0.066-0.12
			c6.187-11.214,12.227-21.984,18.236-32.657l-1.476-10.618c-7.375,13.086-14.764,26.208-22.384,40.018
			c-4.041,6.082-7.057,12.099-9.997,17.977c-1.523,2.057-2.775,4.065-3.979,5.989c-1.25,2.002-2.449,3.913-3.844,5.773l-0.15,0.2
			l-0.118,0.22c-8,15-15.976,29.954-24.547,44.292l5.576,3.334c8.638-14.452,16.627-29.423,24.589-44.352
			C89.286,1100.677,90.545,1098.657,91.755,1096.722z M297.026,82.826c-41.03,72.412-82.33,144.802-123.756,217.551l1.467,10.556
			c41.419-72.748,82.718-145.126,123.76-217.524L297.026,82.826z M249.854,110.558l0.052-0.104c1.435-2.873,3.167-5.846,4.826-8.906
			c1.573-2.906,3.084-5.893,4.179-9.018c1.463-1.993,2.677-3.939,3.845-5.808c1.25-2.001,2.448-3.912,3.844-5.772l0.054-0.072
			l0.051-0.075c1.282-1.926,1.879-3.786,2.379-5.274c0.5-1.512,0.903-2.65,1.621-3.726l0.042-0.063l0.041-0.066
			c5.977-9.965,11.997-19.99,17.063-30.105c0.942-1.57,1.87-3.139,2.788-4.707l-1.457-10.477c-2.266,3.981-4.577,7.966-6.965,11.945
			l-0.065,0.108l-0.055,0.11c-4.911,9.825-10.854,19.74-16.841,29.718c-1.252,1.901-1.841,3.736-2.335,5.208
			c-0.49,1.481-0.887,2.605-1.578,3.66c-1.576,2.111-2.861,4.172-4.095,6.146c-1.25,2.001-2.448,3.912-3.844,5.772l-0.316,0.422
			l-0.167,0.5c-0.895,2.692-2.306,5.543-3.899,8.479c-1.574,2.908-3.32,5.9-4.873,8.991
			c-27.978,47.126-52.692,92.056-78.517,137.966l1.476,10.619c27.4-48.583,53.251-95.792,82.688-145.37L249.854,110.558z
			 M6.85,1109.561l0.028-0.053c10.98-20.963,21.949-40.905,33.908-60.836l0.018-0.031l0.017-0.029c4-7,8-13.999,12-21l0.045-0.078
			l0.04-0.08c0.599-1.192,0.929-2.181,1.176-2.926c0.231-0.689,0.393-1.178,0.726-1.874c7.002-10.048,11.992-19.987,17.82-30.688
			c0.89-0.89,1.779-1.779,2.668-2.669l0.373-0.373l0.236-0.471c1.595-3.194,2.862-6.502,4.211-9.688
			c1.346-3.187,2.771-6.243,4.586-8.964l0.06-0.09l0.054-0.094c7.995-13.917,15.901-27.657,23.75-41.303l-1.459-10.496
			c-9.2,15.999-18.475,32.112-27.874,48.474c-2.151,3.25-3.711,6.659-5.101,9.941c-1.324,3.133-2.498,6.155-3.809,8.847
			l-2.622,2.622l-0.331,0.33l-0.224,0.411c-6.035,11.069-10.979,20.939-17.81,30.692l-0.137,0.195l-0.107,0.215
			c-0.599,1.192-0.929,2.18-1.176,2.926c-0.245,0.732-0.412,1.235-0.789,2.003c-3.979,6.963-7.958,13.927-11.938,20.89
			c-12.021,20.037-23.036,40.064-34.039,61.068c-3.925,6.863-7.84,12.738-12.797,19.678l-0.148,0.207l-0.113,0.229
			c-2.932,5.865-5.913,10.837-9.123,16.873l5.738,3.049c3.07-5.781,6.053-10.758,9.083-16.79c4.964-6.957,9.001-13.02,13.028-20.067
			L6.85,1109.561z M192.636,37.772c10.366-18.26,20.731-36.521,31.097-54.78l-5.65-3.207c-10.366,18.26-20.731,36.52-31.097,54.78
			c-11.255,19.828-22.511,39.655-33.766,59.482c-2.312,4.073-4.623,8.145-6.935,12.217l1.47,10.572
			c3.706-6.527,7.41-13.054,11.116-19.581C170.125,77.428,181.381,57.602,192.636,37.772z M218.164,268.826
			c9.94-17.512,19.881-35.023,29.822-52.535l33.129-58.359c7.057-12.431,14.113-24.861,21.169-37.292l-1.47-10.572
			c-8.45,14.885-16.9,29.771-25.35,44.657c-11.043,19.453-22.086,38.906-33.129,58.359c-9.94,17.512-19.881,35.023-29.821,52.535
			c-8.175,14.4-16.349,28.801-24.524,43.201c-3.627,6.389-7.254,12.778-10.88,19.167l1.47,10.572
			c5.021-8.844,10.041-17.688,15.061-26.532C201.814,297.627,209.989,283.227,218.164,268.826z M222.77,123.698l-0.003,0.005
			c8.116-13.201,14.112-26.188,21.974-38.959c1.256-1.904,1.846-3.743,2.341-5.217c0.5-1.512,0.903-2.65,1.622-3.725l0.034-0.053
			l0.032-0.053c13.462-21.964,25.909-43.904,38.135-65.679l-1.479-10.643c-13.57,24.203-27.263,48.562-42.172,72.888
			c-1.252,1.902-1.841,3.737-2.335,5.209c-0.5,1.512-0.903,2.65-1.621,3.725l-0.033,0.05l-0.03,0.05
			c-8.124,13.213-14.123,26.211-21.996,38.993c-20.17,32.585-37.305,64.5-55.565,96.66l1.466,10.544
			c19.921-34.761,38.069-68.969,59.624-103.784L222.77,123.698z M257.249-20.204c-34.21,60.831-68.638,121.511-103.205,182.281
			l1.468,10.56c35.972-63.228,71.804-126.361,107.4-189.656L257.249-20.204z M212.223,37.772
			c10.365-18.26,20.731-36.521,31.097-54.78l-5.651-3.207c-10.366,18.26-20.731,36.52-31.097,54.78
			c-11.255,19.828-22.511,39.655-33.766,59.482c-7.556,13.312-15.111,26.621-22.668,39.933l1.47,10.572
			c8.949-15.766,17.899-31.532,26.848-47.297C189.712,77.428,200.967,57.602,212.223,37.772z M282.47-16.973l-5.61-3.278
			c-33.684,57.644-65.691,114.656-99.687,174.649l-0.014,0.023l-0.012,0.022c-6.433,11.794-12.865,23.37-19.32,34.853l1.476,10.616
			c7.865-13.926,15.698-27.967,23.533-42.33C216.836,97.583,248.828,40.6,282.47-16.973z" />
			<polyline fill="none" points="-89,-90 273,-90 449,1176 -117,1176 -89,-90 		" />
		</g>
	</g>
	<g id="design">
		<polygon fill-rule="evenodd" clip-rule="evenodd" fill="#113D63" points="1323.231,347.25 1369.837,347.25 1355.902,369.654 
		1369.837,392.06 1323.231,392.06 1323.231,369.654 	" />
		<polygon fill-rule="evenodd" clip-rule="evenodd" fill="#041F33"
			points="1349.619,379.723 1323.231,392.06 1323.231,379.723 	" />
		<polygon fill-rule="evenodd" clip-rule="evenodd" fill="#113D63" points="688.766,347.25 642.161,347.25 656.095,369.654 
		642.161,392.06 688.766,392.06 688.766,369.654 	" />
		<polygon fill-rule="evenodd" clip-rule="evenodd" fill="#041F33"
			points="662.378,379.723 688.766,392.06 688.766,379.723 	" />
		<polygon fill-rule="evenodd" clip-rule="evenodd" fill="#184771"
			points="1334.531,334.913 677.465,334.913 662.378,334.913 
		662.378,357.318 662.378,379.723 677.465,379.723 1334.531,379.723 1349.619,379.723 1349.619,357.318 1349.619,334.913 	" />
		

		<line fill="none" stroke="#232323" stroke-width="1.9645" stroke-miterlimit="10" x1="800.869" y1="890.08"
			x2="1200.867" y2="890.08" />

		<text transform="matrix(1 0 0 1 1004.2695 880.1563)" fill="#232323" font-family="'Lato-Regular'"
			font-size="23.9792" letter-spacing="2" text-anchor="middle">
			<tspan id="basicInfoEventLocale">São Paulo</tspan>, 
			<tspan id="basicInfoEventDateTwo">10 de janeiro de 2023</tspan></text>

		<text transform="matrix(1 0 0 1 1004.2695 950.9043)" fill="#232323" font-family="'Lato-Regular'"
			font-size="35.9792" letter-spacing="2" text-anchor="middle"><tspan id="basicInfoSpeakerName">José Augusto Sousa</tspan></text>

		<text transform="matrix(1 0 0 1 1004.2695 1000.9043)" fill="#232323" font-family="'Lato-Regular'"
			font-size="29.9792" letter-spacing="2" text-anchor="middle"><tspan id="basicInfoSpeakerRole">CEO</tspan></text>
		<g>
    

			<text transform="matrix(1 0 0 1 490.71 492.0889)">
				<tspan x="76.409" y="30" fill="#303030" font-family="'Lato-Light'" font-size="34.8964">
					Certificamos que <tspan id="personName">Maria</tspan> participou do evento <tspan id="basicInfoEventNameTwo">%NomeDoEvento%,</tspan></tspan>
				<tspan x="15.409" y="66.876" fill="#303030" font-family="'Lato-Light'" font-size="34.8964">                   
			realizado no dia <tspan id="basicInfoEventDate">%DataDoEvento%</tspan>, com uma carga horária total de </tspan>
				<tspan x="15.409" y="99.751" fill="#303030" font-family="'Lato-Light'" font-size="34.8964">
					<tspan id="basicInfoEventWorkload">%CargaHorária%</tspan> horas.</tspan>
				<tspan x="76.409" y="158.627" fill="#303030" font-family="'Lato-Light'" font-size="34.8964">
					Este certificado é concedido como reconhecimento pela dedicação </tspan>
				<tspan x="15.409" y="190.627" fill="#303030" font-family="'Lato-Light'" font-size="34.8964">
				e comprometimento de  <tspan id="personNameTwo"> %NomedoParticipante%</tspan> em aprimorar suas </tspan>
				<tspan x="15.409" y="220.627" fill="#303030" font-family="'Lato-Light'" font-size="34.8964">
				habilidades e conhecimentos na área abordada pelo evento.</tspan>
			</text>
		</g>

		<text transform="matrix(1 0 0 1 999.0088 367.7217)" fill="#FFFFFF" font-family="'Lato-Regular'"
			font-size="40.4985" letter-spacing="5" text-anchor="middle"><tspan id="basicInfoEventName" >Nome do evento</tspan></text>

		<text transform="matrix(1 0 0 1 526.9805 240.4287)" fill="#184771" font-family="'Lato-Black'"
			font-size="130.5061" letter-spacing="13">CERTIFICADO</text>
	</g>
	<g id="vexels">
		<g>
			<g>
				<path fill="#939393" d="M1010.2,1052.203l-0.797-1.723c-0.392-0.828-1.432-1.212-2.307-0.856
				c-0.947,0.324-1.369,1.302-0.978,2.102l0.894,1.938l7.076,15.35c0.065,0.062,0.131,0.178,0.159,0.236
				c0,0.03,0.036,0.03,0.036,0.03c0.032,0.06,0.099,0.119,0.163,0.18c0,0.058,0.031,0.058,0.031,0.087
				c0.097,0.061,0.162,0.09,0.225,0.148c0.034,0,0.034,0,0.034,0c0.099,0.06,0.229,0.146,0.295,0.179c0.032,0,0.032,0,0.032,0
				s0.033,0,0.033,0.029c0.064,0,0.193,0.03,0.26,0.056c0.029,0,0.064,0,0.064,0c0.097,0.033,0.229,0.033,0.329,0.033
				c0.094,0,0.193,0,0.322-0.033c0.032,0,0.063,0,0.063,0c0.098-0.025,0.162-0.056,0.262-0.056c0.034-0.029,0.034-0.029,0.063-0.029
				c0.1-0.032,0.197-0.119,0.263-0.149c0.063-0.029,0.063-0.029,0.063-0.029c0.064-0.059,0.13-0.088,0.194-0.148
				c0.034-0.029,0.034-0.029,0.064-0.087c0.034-0.061,0.13-0.12,0.163-0.18c0.032,0,0.032,0,0.032-0.03
				c0.064-0.059,0.103-0.175,0.133-0.236l0.303-0.651l-1.927-4.175L1010.2,1052.203z M1079.202,1052.08
				c0.553-0.74,0.424-1.746-0.388-2.25c-0.813-0.562-1.888-0.414-2.505,0.355l-3.708,4.625l2.208,2.699L1079.202,1052.08z
				 M1024.433,1049.624c-0.879-0.355-1.951,0.028-2.342,0.856l-4.71,10.182l1.932,4.18l6.096-13.116
				C1025.767,1050.926,1025.343,1049.948,1024.433,1049.624z M982.444,1043.366c-0.765-0.766-1.783-1.185-2.863-1.185
				c-1.082,0-2.097,0.419-2.861,1.185l-13.106,13.107c-1.576,1.579-1.576,4.144,0,5.721l13.106,13.107
				c0.765,0.765,1.779,1.184,2.861,1.184c1.08,0,2.099-0.419,2.863-1.181l13.104-13.11c0.767-0.767,1.187-1.777,1.187-2.862
				c0-1.077-0.42-2.094-1.187-2.858L982.444,1043.366z M993.515,1060.508l-12.758,12.76c-0.628,0.628-1.724,0.628-2.349,0
				l-12.761-12.76c-0.646-0.647-0.646-1.7-0.001-2.349l12.762-12.758c0.011-0.013,0.022-0.023,0.034-0.03v10.572
				c-0.52,0.176-0.997,0.453-1.397,0.855c-0.677,0.676-1.05,1.576-1.05,2.533c0,0.959,0.373,1.863,1.05,2.535
				c0.677,0.681,1.579,1.055,2.534,1.055c0.959,0,1.861-0.372,2.538-1.055c1.4-1.396,1.4-3.671,0-5.073
				c-0.398-0.399-0.878-0.675-1.396-0.851v-10.572c0.01,0.007,0.024,0.018,0.036,0.03l12.758,12.758
				c0.313,0.313,0.483,0.729,0.483,1.173S993.828,1060.189,993.515,1060.508z M1073.025,1059.717l-2.183-2.722l-5.493-6.81
				c-0.558-0.77-1.694-0.917-2.476-0.355c-0.813,0.504-0.974,1.51-0.422,2.25l6.178,7.637l-6.178,7.699
				c-0.552,0.709-0.391,1.747,0.422,2.249c0.293,0.209,0.651,0.327,1.04,0.327c0.555,0,1.074-0.268,1.436-0.684l5.493-6.836
				l5.868,7.342c0.34,0.422,0.875,0.642,1.375,0.642c0.37,0,0.806-0.172,1.116-0.42c0.737-0.586,0.796-1.651,0.207-2.385
				L1073.025,1059.717z M1044.26,1049.302c-5.26,0-9.542,4.652-9.542,10.367c0,5.672,4.282,10.289,9.542,10.289
				c3.232,0,6.207-1.764,7.962-4.72c0.423-0.763,0.21-1.712-0.534-2.279c-0.24-0.153-0.523-0.236-0.813-0.236
				c-0.563,0-1.064,0.302-1.334,0.795c-1.104,1.941-3.127,3.145-5.281,3.145c-3.192,0-5.837-2.539-6.311-5.975h14.195
				c0.887,0,1.58-0.689,1.58-1.569l-0.001-0.21C1053.32,1053.435,1049.25,1049.302,1044.26,1049.302z M1038.181,1057.434
				c0.862-2.912,3.249-4.836,6.079-4.836c2.773,0,5.172,1.966,5.979,4.836H1038.181z M1125.583,1066.611
				c-0.033-0.001-2.443-0.001-2.478-0.001c-0.921,0-1.992-0.528-1.992-2.015v-16.485c0-0.969-0.79-1.756-1.762-1.756
				c-0.938,0-1.76,0.82-1.76,1.756v16.485c0,3.26,2.164,5.363,5.514,5.363c0.041,0,2.461,0,2.501-0.001
				c0.869-0.062,1.554-0.791,1.554-1.673C1127.16,1067.396,1126.462,1066.662,1125.583,1066.611z M1152.501,1061.17
				c-0.747-1.1-1.918-1.867-3.253-2.455c-1.3-0.566-2.83-0.949-4.489-1.244h-0.065c-1.754-0.297-3.216-0.775-4.063-1.307
				c-0.424-0.263-0.718-0.531-0.883-0.768c-0.159-0.235-0.227-0.477-0.227-0.826c0-0.625,0.357-1.276,1.239-1.867
				c0.877-0.592,2.179-1.008,3.642-1.008c1.983,0,3.577,0.889,5.238,1.895c0.778,0.473,1.82,0.266,2.306-0.443
				c0.522-0.682,0.295-1.629-0.451-2.103c-1.661-0.978-3.972-2.368-7.093-2.368c-2.115,0-4.097,0.561-5.628,1.568
				c-1.497,1.011-2.603,2.547-2.603,4.326c0,0.885,0.261,1.715,0.75,2.425c0.713,1.036,1.787,1.777,3.021,2.308
				c1.235,0.533,2.67,0.889,4.195,1.154h0.068c1.919,0.327,3.514,0.83,4.456,1.392c0.487,0.298,0.779,0.592,0.978,0.89
				c0.193,0.297,0.289,0.561,0.289,0.945c0,0.742-0.419,1.482-1.4,2.133c-0.973,0.65-2.437,1.096-4.063,1.096
				c-2.31,0.029-4.782-1.215-6.213-2.278c-0.716-0.536-1.789-0.446-2.375,0.204c-0.554,0.652-0.456,1.629,0.262,2.16
				c1.855,1.336,4.813,2.936,8.326,2.961c2.311,0,4.423-0.619,6.02-1.685c1.624-1.068,2.795-2.692,2.795-4.591
				C1153.281,1062.767,1152.991,1061.881,1152.501,1061.17z M1098.577,1049.302c-5.261,0-9.54,4.652-9.54,10.367
				c0,5.672,4.279,10.289,9.54,10.289c3.236,0,6.207-1.764,7.967-4.72c0.422-0.763,0.207-1.712-0.534-2.279
				c-0.242-0.153-0.525-0.236-0.815-0.236c-0.563,0-1.062,0.302-1.334,0.795c-1.101,1.941-3.125,3.145-5.283,3.145
				c-3.189,0-5.837-2.539-6.309-5.975h14.197c0.885,0,1.58-0.689,1.58-1.569l-0.001-0.21
				C1107.643,1053.435,1103.572,1049.302,1098.577,1049.302z M1092.499,1057.434c0.862-2.912,3.251-4.836,6.078-4.836
				c2.78,0,5.175,1.966,5.981,4.836H1092.499z" />
			</g>
			<g>
				<path fill="#939393" d="M866.17,1060.709c0,0.614,0.006,1.172,0.019,1.674c0.013,0.498,0.066,0.991,0.163,1.473h-0.977
				l-0.361-1.283h-0.074c-0.241,0.422-0.591,0.772-1.048,1.049c-0.459,0.277-0.996,0.416-1.61,0.416
				c-1.207,0-2.102-0.379-2.688-1.14c-0.584-0.76-0.877-1.947-0.877-3.564c0-1.544,0.364-2.716,1.094-3.519
				c0.73-0.802,1.734-1.201,3.014-1.201c0.445,0,0.798,0.023,1.059,0.072c0.258,0.048,0.539,0.125,0.841,0.232v-3.763h1.446
				V1060.709z M862.517,1062.771c0.614,0,1.103-0.16,1.465-0.479c0.361-0.32,0.608-0.807,0.742-1.457v-4.486
				c-0.218-0.17-0.465-0.29-0.742-0.362c-0.277-0.074-0.646-0.11-1.103-0.11c-0.833,0-1.484,0.276-1.955,0.824
				c-0.471,0.549-0.705,1.426-0.705,2.632c0,0.495,0.039,0.954,0.117,1.376c0.079,0.423,0.207,0.784,0.389,1.085
				c0.181,0.302,0.418,0.541,0.714,0.714C861.735,1062.684,862.094,1062.771,862.517,1062.771z" />
				<path fill="#939393" d="M875.56,1063.096c-0.361,0.291-0.816,0.521-1.366,0.689c-0.548,0.167-1.13,0.252-1.744,0.252
				c-0.688,0-1.284-0.111-1.792-0.334c-0.506-0.225-0.923-0.543-1.249-0.96c-0.324-0.415-0.566-0.913-0.723-1.492
				c-0.157-0.579-0.235-1.23-0.235-1.954c0-1.544,0.344-2.72,1.031-3.526c0.687-0.81,1.67-1.214,2.948-1.214
				c0.41,0,0.821,0.046,1.231,0.137c0.409,0.09,0.778,0.262,1.104,0.516s0.591,0.613,0.795,1.076
				c0.204,0.465,0.309,1.076,0.309,1.836c0,0.398-0.038,0.839-0.109,1.321h-5.807c0,0.53,0.054,1,0.162,1.411
				c0.108,0.41,0.276,0.756,0.509,1.039c0.227,0.284,0.526,0.502,0.893,0.653c0.369,0.149,0.817,0.226,1.348,0.226
				c0.411,0,0.821-0.072,1.23-0.217c0.411-0.146,0.719-0.314,0.924-0.508L875.56,1063.096z M872.449,1055.824
				c-0.713,0-1.281,0.187-1.712,0.561c-0.427,0.375-0.683,1.014-0.768,1.918h4.487c0-0.918-0.176-1.559-0.524-1.928
				C873.582,1056.009,873.088,1055.824,872.449,1055.824z" />
				<path fill="#939393" d="M882.128,1061.36c0-0.362-0.108-0.646-0.326-0.851s-0.486-0.377-0.806-0.515
				c-0.318-0.139-0.669-0.272-1.049-0.399c-0.381-0.125-0.729-0.289-1.05-0.488c-0.319-0.199-0.589-0.455-0.806-0.769
				c-0.216-0.313-0.324-0.736-0.324-1.266c0-0.869,0.246-1.505,0.74-1.909c0.495-0.404,1.184-0.607,2.063-0.607
				c0.65,0,1.196,0.059,1.638,0.173c0.44,0.114,0.823,0.251,1.149,0.407l-0.346,1.195c-0.276-0.133-0.611-0.252-1.003-0.355
				c-0.393-0.102-0.811-0.152-1.259-0.152c-0.53,0-0.919,0.089-1.165,0.271c-0.249,0.183-0.372,0.495-0.372,0.94
				c0,0.314,0.108,0.559,0.327,0.733c0.217,0.176,0.485,0.333,0.804,0.472c0.32,0.137,0.671,0.273,1.052,0.405
				c0.378,0.133,0.729,0.308,1.047,0.525c0.32,0.218,0.589,0.491,0.807,0.824c0.215,0.331,0.323,0.767,0.323,1.31
				c0,0.388-0.062,0.75-0.188,1.086c-0.127,0.338-0.323,0.629-0.587,0.869c-0.268,0.24-0.596,0.432-0.988,0.568
				c-0.392,0.14-0.853,0.209-1.383,0.209c-0.688,0-1.273-0.066-1.756-0.199c-0.482-0.132-0.889-0.289-1.212-0.471l0.434-1.229
				c0.276,0.156,0.641,0.302,1.086,0.435c0.446,0.133,0.899,0.199,1.356,0.199c0.52,0,0.947-0.102,1.284-0.309
				C881.958,1062.259,882.128,1061.892,882.128,1061.36z" />
				<path fill="#939393" d="M885.764,1052.025c0-0.278,0.092-0.516,0.279-0.716c0.188-0.198,0.427-0.298,0.715-0.298
				c0.289,0,0.537,0.1,0.741,0.298c0.206,0.2,0.308,0.438,0.308,0.716c0,0.276-0.102,0.506-0.308,0.686
				c-0.204,0.182-0.452,0.272-0.741,0.272c-0.288,0-0.527-0.091-0.715-0.272C885.855,1052.531,885.764,1052.302,885.764,1052.025z
				 M886.071,1054.775h1.447v9.045h-1.447V1054.775z" />
				<path fill="#939393" d="M897.54,1064.236c0,1.169-0.311,2.032-0.931,2.588c-0.621,0.555-1.541,0.831-2.76,0.831
				c-0.724,0-1.305-0.044-1.745-0.136c-0.439-0.09-0.817-0.208-1.132-0.353l0.381-1.229c0.277,0.107,0.585,0.211,0.923,0.307
				c0.336,0.097,0.778,0.145,1.32,0.145c0.507,0,0.919-0.045,1.238-0.136c0.319-0.09,0.576-0.241,0.77-0.452
				c0.193-0.21,0.325-0.482,0.398-0.814c0.071-0.332,0.108-0.727,0.108-1.184v-0.868h-0.072c-0.241,0.349-0.55,0.618-0.924,0.804
				c-0.374,0.188-0.862,0.281-1.464,0.281c-1.219,0-2.114-0.379-2.688-1.14c-0.573-0.762-0.86-1.942-0.86-3.547
				c0-1.544,0.37-2.716,1.105-3.519c0.735-0.802,1.82-1.201,3.257-1.201c0.688,0,1.275,0.053,1.763,0.162
				c0.489,0.107,0.927,0.234,1.312,0.381V1064.236z M893.904,1062.753c0.616,0,1.099-0.153,1.447-0.46
				c0.351-0.309,0.597-0.788,0.741-1.439v-4.632c-0.482-0.229-1.098-0.345-1.844-0.345c-0.821,0-1.467,0.279-1.938,0.833
				c-0.468,0.554-0.704,1.424-0.704,2.604c0,0.508,0.042,0.973,0.128,1.395c0.083,0.423,0.216,0.784,0.396,1.085
				c0.18,0.302,0.417,0.537,0.705,0.706C893.126,1062.67,893.482,1062.753,893.904,1062.753z" />
				<path fill="#939393"
					d="M906.134,1063.82v-5.156c0-0.941-0.136-1.648-0.407-2.125c-0.271-0.478-0.769-0.715-1.493-0.715
				c-0.639,0-1.167,0.172-1.584,0.516c-0.415,0.344-0.707,0.775-0.876,1.293v6.188h-1.447v-9.045h1.013l0.271,1.102h0.074
				c0.289-0.385,0.678-0.701,1.167-0.949c0.488-0.246,1.069-0.371,1.746-0.371c0.494,0,0.928,0.059,1.302,0.173
				c0.373,0.114,0.685,0.317,0.932,0.606c0.247,0.288,0.435,0.68,0.562,1.166c0.126,0.488,0.188,1.107,0.188,1.854v5.464H906.134z" />
				<path fill="#939393" d="M916.826,1063.096c-0.362,0.291-0.817,0.521-1.367,0.689c-0.549,0.167-1.129,0.252-1.744,0.252
				c-0.688,0-1.285-0.111-1.792-0.334c-0.506-0.225-0.922-0.543-1.248-0.96c-0.325-0.415-0.567-0.913-0.725-1.492
				c-0.156-0.579-0.234-1.23-0.234-1.954c0-1.544,0.343-2.72,1.031-3.526c0.687-0.81,1.671-1.214,2.949-1.214
				c0.409,0,0.82,0.046,1.23,0.137c0.409,0.09,0.777,0.262,1.104,0.516c0.324,0.254,0.589,0.613,0.795,1.076
				c0.204,0.465,0.308,1.076,0.308,1.836c0,0.398-0.037,0.839-0.108,1.321h-5.808c0,0.53,0.054,1,0.162,1.411
				c0.108,0.41,0.277,0.756,0.509,1.039c0.227,0.284,0.525,0.502,0.894,0.653c0.367,0.149,0.815,0.226,1.347,0.226
				c0.411,0,0.82-0.072,1.23-0.217c0.411-0.146,0.719-0.314,0.925-0.508L916.826,1063.096z M913.715,1055.824
				c-0.712,0-1.282,0.187-1.711,0.561c-0.428,0.375-0.684,1.014-0.769,1.918h4.487c0-0.918-0.174-1.559-0.525-1.928
				C914.848,1056.009,914.354,1055.824,913.715,1055.824z" />
				<path fill="#939393" d="M926.361,1060.709c0,0.614,0.004,1.172,0.017,1.674c0.012,0.498,0.066,0.991,0.163,1.473h-0.978
				l-0.361-1.283h-0.072c-0.24,0.422-0.591,0.772-1.05,1.049c-0.459,0.277-0.993,0.416-1.61,0.416c-1.206,0-2.101-0.379-2.687-1.14
				c-0.585-0.76-0.877-1.947-0.877-3.564c0-1.544,0.365-2.716,1.094-3.519c0.73-0.802,1.734-1.201,3.014-1.201
				c0.446,0,0.798,0.023,1.059,0.072c0.258,0.048,0.538,0.125,0.841,0.232v-3.763h1.448V1060.709z M922.706,1062.771
				c0.614,0,1.103-0.16,1.466-0.479c0.36-0.32,0.608-0.807,0.741-1.457v-4.486c-0.219-0.17-0.464-0.29-0.741-0.362
				c-0.278-0.074-0.646-0.11-1.104-0.11c-0.833,0-1.483,0.276-1.954,0.824c-0.469,0.549-0.705,1.426-0.705,2.632
				c0,0.495,0.039,0.954,0.117,1.376c0.079,0.423,0.207,0.784,0.389,1.085c0.182,0.302,0.42,0.541,0.716,0.714
				C921.923,1062.684,922.283,1062.771,922.706,1062.771z" />
				<path fill="#939393"
					d="M933.977,1051.155h1.447v4.505h0.072c0.277-0.348,0.63-0.619,1.06-0.813
				c0.428-0.193,0.895-0.291,1.4-0.291c1.171,0,2.048,0.375,2.632,1.122c0.586,0.749,0.88,1.906,0.88,3.475
				c0,1.578-0.388,2.78-1.158,3.6c-0.772,0.821-1.858,1.229-3.257,1.229c-0.676,0-1.287-0.07-1.838-0.217
				c-0.548-0.145-0.96-0.302-1.238-0.471V1051.155z M937.703,1055.824c-0.604,0-1.091,0.168-1.464,0.508
				c-0.377,0.335-0.646,0.813-0.815,1.428v4.559c0.229,0.133,0.507,0.232,0.832,0.299s0.664,0.099,1.013,0.099
				c0.82,0,1.475-0.289,1.965-0.867c0.487-0.579,0.732-1.483,0.732-2.714c0-0.471-0.043-0.91-0.128-1.32
				c-0.082-0.412-0.216-0.761-0.397-1.05c-0.181-0.29-0.414-0.519-0.697-0.688C938.46,1055.91,938.113,1055.824,937.703,1055.824z" />
				<path fill="#939393" d="M946.196,1060.637l0.509,1.737h0.092l0.398-1.755l1.761-5.844h1.447l-2.676,8.122
				c-0.207,0.592-0.408,1.165-0.606,1.719c-0.199,0.555-0.421,1.049-0.661,1.483c-0.242,0.434-0.513,0.78-0.813,1.042
				c-0.301,0.257-0.651,0.388-1.051,0.388c-0.433,0-0.789-0.061-1.067-0.181l0.255-1.249c0.156,0.06,0.307,0.092,0.452,0.092
				c0.337,0,0.663-0.18,0.977-0.535s0.571-0.968,0.778-1.836l-3.638-9.045h1.665L946.196,1060.637z" />
			</g>
		</g>
		<g>
			<path fill="#FFFFFF" d="M2504.897,283.773h-644.659c-10.94,0-19.811,8.871-19.811,19.811v268.082l-62.03,19.922l62.03,18.008
			v186.82c0,10.939,8.87,19.811,19.811,19.811h644.659c10.94,0,19.811-8.871,19.811-19.811V303.584
			C2524.708,292.645,2515.838,283.773,2504.897,283.773z" />
			<rect x="1904.998" y="350.762" fill="none" width="583.032" height="407.033" />
			<text transform="matrix(1 0 0 1 1904.998 367.8018)">
				<tspan x="0" y="0" fill="#333333" font-family="'MyriadPro-Regular'" font-size="24">This design was made
					by vexels.com. It’s under Creative </tspan>
				<tspan x="0" y="28.8" fill="#333333" font-family="'MyriadPro-Regular'" font-size="24">Commons 3.0
					Attribution License, so you can use this </tspan>
				<tspan x="0" y="57.6" fill="#333333" font-family="'MyriadPro-Regular'" font-size="24">vector (even
					commercially) as long as you credit us. If you </tspan>
				<tspan x="0" y="86.399" fill="#333333" font-family="'MyriadPro-Regular'" font-size="24">don’t want to
					credit, you can buy a license. Learn more on </tspan>
				<tspan x="0" y="115.2" fill="#C64B09" font-family="'MyriadPro-Regular'" font-size="24">
					www.vexels.com/terms-and-conditions/</tspan>
				<tspan x="0" y="201.6" fill="#333333" font-family="'MyriadPro-Regular'" font-size="24">You can’t
					sublicense, redistribute or resell an image or </tspan>
				<tspan x="0" y="230.399" fill="#333333" font-family="'MyriadPro-Regular'" font-size="24">part of it. You
					can’t use our contents for products where </tspan>
				<tspan x="0" y="259.2" fill="#333333" font-family="'MyriadPro-Regular'" font-size="24">the design is the
					main reason it’s being purchased either.</tspan>
				<tspan x="0" y="316.8" fill="#333333" font-family="'MyriadPro-Regular'" font-size="24">Thanks!</tspan>
				<tspan x="0" y="345.6" fill="#333333" font-family="'MyriadPro-Regular'" font-size="24">Vexels Team
				</tspan>
			</text>
		</g>
	</g>
</svg>